# xmcd CD database file generated by freedbAccess_ocx
#
# Track frame offsets:
#       150
#       14444
#       34968
#       48578
#       65322
#       80752
#       99714
#       117722
#       133976
#
# Disc length: 2117 seconds
#
# Revision: 0
# Processed by: cddbd v1.5.1PL0 Copyright (c) Steve Scherf et al.
# Submitted via: CDnGo 2.00
#
DISCID=86084309
DTITLE=Goldentone - live to air
DYEAR=2000
DGENRE=Alt. Country
TTITLE0=annalise
TTITLE1=postcards
TTITLE2=next to thee
TTITLE3=within your arms
TTITLE4=lingering ache
TTITLE5=rebekah
TTITLE6=aeroplane
TTITLE7=temptation
TTITLE8=inner dark
EXTD=
EXTT0=
EXTT1=
EXTT2=
EXTT3=
EXTT4=
EXTT5=
EXTT6=
EXTT7=
EXTT8=
PLAYORDER=
